<svg width="631" height="76" viewBox="0 0 631 76" fill="none" xmlns="http://www.w3.org/2000/svg">
<path d="M0 2.01392H17.3593L39.272 32.3495L61.1846 2.01392H78.5439V73.509H59.1925V31.9222L39.272 58.1276L19.3514 31.9222V73.509H0V2.01392Z" fill="white"/>
<path d="M122.851 2.01392H183.269V18.7861H142.185V29.5886H175.166V46.0765H142.185V56.7368H183.269V73.509H122.851V2.01392Z" fill="white"/>
<path d="M257.97 30.0667H296.856C298.423 49.4462 291.301 75.523 258.397 75.523C235.464 75.523 218.513 58.7085 218.513 37.7615C218.513 16.8146 235.464 0 258.397 0C268.653 0 276.202 3.41991 281.33 6.98232C284.321 8.97726 286.885 11.2572 289.022 13.8221L277.199 27.0743C275.632 25.3643 273.923 23.7969 271.929 22.5144C268.51 20.092 263.952 17.9545 258.255 17.9545C247.002 17.9545 238.313 26.7893 238.313 37.904C238.313 49.1612 247.002 57.8535 258.255 57.8535C274.208 57.8535 276.914 45.4563 276.914 45.4563H257.827V30.0667H257.97Z" fill="white"/>
<path d="M478.497 30.0667H517.384C518.951 49.4462 511.828 75.523 478.924 75.523C455.991 75.523 439.041 58.7085 439.041 37.7615C439.041 16.8146 455.991 0 478.924 0C489.18 0 496.73 3.41991 501.857 6.98232C504.849 8.97726 507.413 11.2572 509.549 13.8221L497.727 27.0743C496.16 25.3643 494.45 23.7969 492.456 22.5144C489.038 20.092 484.48 17.9545 478.782 17.9545C467.529 17.9545 458.84 26.7893 458.84 37.904C458.84 49.1612 467.529 57.8535 478.782 57.8535C494.735 57.8535 497.442 45.4563 497.442 45.4563H478.355V30.0667H478.497Z" fill="white"/>
<path d="M368.552 0C391.713 0 408.831 16.8146 408.831 37.7615C408.831 58.7085 391.713 75.523 368.552 75.523C345.392 75.523 328.273 58.7085 328.273 37.7615C328.273 16.8146 345.392 0 368.552 0ZM368.552 57.711C379.773 57.711 388.692 49.0187 388.692 37.7615C388.692 26.6468 379.773 17.812 368.552 17.812C357.188 17.812 348.413 26.6468 348.413 37.7615C348.413 49.0187 357.188 57.711 368.552 57.711Z" fill="white"/>
<path d="M590.59 0C613.461 0 630.365 16.8146 630.365 37.7615C630.365 58.7085 613.461 75.523 590.59 75.523C567.719 75.523 550.814 58.7085 550.814 37.7615C550.957 16.8146 567.861 0 590.59 0ZM590.59 57.711C601.67 57.711 610.478 49.0187 610.478 37.7615C610.478 26.6468 601.67 17.812 590.59 17.812C579.368 17.812 570.702 26.6468 570.702 37.7615C570.844 49.0187 579.51 57.711 590.59 57.711Z" fill="white"/>
</svg>
